<svg width="18" height="18" viewBox="0 0 18 18" fill="none" xmlns="http://www.w3.org/2000/svg">
<path d="M1.5 6.69118C1.5 9.82353 4.19637 12.9044 8.45619 15.5515C8.6148 15.6471 8.84139 15.75 9 15.75C9.15861 15.75 9.3852 15.6471 9.55136 15.5515C13.8036 12.9044 16.5 9.82353 16.5 6.69118C16.5 4.08824 14.6647 2.25 12.2175 2.25C10.8202 2.25 9.68731 2.89706 9 3.88971C8.3278 2.90441 7.17976 2.25 5.78248 2.25C3.33535 2.25 1.5 4.08824 1.5 6.69118ZM2.71601 6.69118C2.71601 4.73529 4.01511 3.43382 5.76737 3.43382C7.18731 3.43382 8.00302 4.29412 8.48641 5.02941C8.69033 5.32353 8.81873 5.40441 9 5.40441C9.18127 5.40441 9.29456 5.31618 9.5136 5.02941C10.0347 4.30882 10.8202 3.43382 12.2326 3.43382C13.9849 3.43382 15.284 4.73529 15.284 6.69118C15.284 9.42647 12.3157 12.375 9.15861 14.4191C9.08308 14.4706 9.03021 14.5074 9 14.5074C8.96979 14.5074 8.91692 14.4706 8.84894 14.4191C5.68429 12.375 2.71601 9.42647 2.71601 6.69118Z" fill="white"/>
</svg>
