<svg width="80" height="20" viewBox="0 0 80 20" fill="none" xmlns="http://www.w3.org/2000/svg">
<g clip-path="url(#clip0_3_47567)">
<mask id="mask0_3_47567" style="mask-type:luminance" maskUnits="userSpaceOnUse" x="0" y="0" width="80" height="20">
<path d="M80 0H0V20H80V0Z" fill="white"/>
</mask>
<g mask="url(#mask0_3_47567)">
<path d="M0.313726 0.355469V4.8679H5.79765L0 19.6416H12.5867V15.1292H7.15294L12.9129 0.355469H0.313726Z" fill="white"/>
<path d="M36.0659 0.355469V4.8679H41.5498L35.7522 19.6416H48.3389V15.1292H42.9051L48.6526 0.355469H36.0659Z" fill="white"/>
<path d="M19.2501 0.355469H14.356V19.6416H19.2501V0.355469Z" fill="white"/>
<path d="M58.8674 11.9935L57.349 5.36503L55.8306 11.9935H58.8674ZM65.531 19.6416H60.6243L59.8463 16.2254H54.8768L54.0988 19.6416H49.1921L54.3498 0.355469H60.3859L65.531 19.6416Z" fill="white"/>
<path d="M28.1224 8.56597H35.4761C35.5639 9.22881 35.589 9.86616 35.589 10.4653C35.589 16.2269 33.3051 20 28.2604 20C23.2157 20 20.6306 16.5073 20.6306 9.99363C20.6306 3.47992 23.3287 0 28.2102 0C31.7239 0 33.8698 1.79732 34.9741 5.20076L30.5945 6.7559C30.1051 5.4557 29.4275 4.60166 28.2353 4.60166C26.7043 4.60166 25.6628 5.82537 25.6628 9.78968C25.6628 13.754 26.4157 15.5768 28.3483 15.5768C29.5781 15.5768 30.4439 14.7992 30.4439 12.7087H28.1224V8.57871V8.56597Z" fill="white"/>
<path d="M72.5333 8.56504H79.887C79.9748 9.22788 79.9999 9.86523 79.9999 10.4643C79.9999 16.226 77.716 19.9991 72.6713 19.9991C67.6266 19.9991 65.0415 16.5064 65.0415 9.9927C65.0415 3.479 67.7395 -0.0136719 72.6211 -0.0136719C76.1348 -0.0136719 78.2807 1.78365 79.385 5.18709L75.0054 6.74222C74.516 5.44203 73.8384 4.58799 72.6462 4.58799C71.1152 4.58799 70.0737 5.8117 70.0737 9.776C70.0737 13.7403 70.8266 15.5631 72.7591 15.5631C73.989 15.5631 74.8548 14.7856 74.8548 12.6951H72.5333V8.56504Z" fill="white"/>
</g>
</g>
<defs>
<clipPath id="clip0_3_47567">
<rect width="80" height="20" fill="white"/>
</clipPath>
</defs>
</svg>
