<svg width="19" height="19" viewBox="0 0 19 19" fill="none" xmlns="http://www.w3.org/2000/svg">
<g clip-path="url(#clip0_336_41201)">
<path d="M14.2747 13.1538L17.6654 16.5437L16.5452 17.6639L13.1553 14.2732C11.894 15.2844 10.3251 15.8343 8.7085 15.832C4.7755 15.832 1.5835 12.64 1.5835 8.70703C1.5835 4.77403 4.7755 1.58203 8.7085 1.58203C12.6415 1.58203 15.8335 4.77403 15.8335 8.70703C15.8358 10.3236 15.2858 11.8925 14.2747 13.1538ZM12.6866 12.5664C13.6913 11.5332 14.2524 10.1482 14.2502 8.70703C14.2502 5.64486 11.7699 3.16536 8.7085 3.16536C5.64633 3.16536 3.16683 5.64486 3.16683 8.70703C3.16683 11.7684 5.64633 14.2487 8.7085 14.2487C10.1497 14.251 11.5347 13.6899 12.5679 12.6852L12.6866 12.5664V12.5664Z" fill="#FAFAFB"/>
</g>
<defs>
<clipPath id="clip0_336_41201">
<rect width="19" height="19" fill="white"/>
</clipPath>
</defs>
</svg>
