<svg width="19" height="19" viewBox="0 0 19 19" fill="none" xmlns="http://www.w3.org/2000/svg">
<g clip-path="url(#clip0_336_41203)">
<path d="M5.54167 6.33464V4.7513C5.54167 3.70149 5.9587 2.69467 6.70104 1.95234C7.44337 1.21001 8.45018 0.792969 9.5 0.792969C10.5498 0.792969 11.5566 1.21001 12.299 1.95234C13.0413 2.69467 13.4583 3.70149 13.4583 4.7513V6.33464H15.8333C16.0433 6.33464 16.2447 6.41804 16.3931 6.56651C16.5416 6.71498 16.625 6.91634 16.625 7.1263V16.6263C16.625 16.8363 16.5416 17.0376 16.3931 17.1861C16.2447 17.3346 16.0433 17.418 15.8333 17.418H3.16667C2.9567 17.418 2.75534 17.3346 2.60687 17.1861C2.45841 17.0376 2.375 16.8363 2.375 16.6263V7.1263C2.375 6.91634 2.45841 6.71498 2.60687 6.56651C2.75534 6.41804 2.9567 6.33464 3.16667 6.33464H5.54167ZM5.54167 7.91797H3.95833V15.8346H15.0417V7.91797H13.4583V9.5013H11.875V7.91797H7.125V9.5013H5.54167V7.91797ZM7.125 6.33464H11.875V4.7513C11.875 4.12141 11.6248 3.51732 11.1794 3.07192C10.734 2.62652 10.1299 2.3763 9.5 2.3763C8.87011 2.3763 8.26602 2.62652 7.82062 3.07192C7.37522 3.51732 7.125 4.12141 7.125 4.7513V6.33464Z" fill="white"/>
</g>
<defs>
<clipPath id="clip0_336_41203">
<rect width="19" height="19" fill="white"/>
</clipPath>
</defs>
</svg>
